<svg width="32" height="32" viewBox="0 0 32 32" fill="none" xmlns="http://www.w3.org/2000/svg">
<g clip-path="url(#clip0_8910_2)">
<circle cx="16" cy="16" r="16" transform="rotate(180 16 16)" fill="white"/>
<mask id="mask0_8910_2" style="mask-type:alpha" maskUnits="userSpaceOnUse" x="0" y="0" width="32" height="32">
<circle cx="16" cy="16" r="16" transform="rotate(180 16 16)" fill="white"/>
</mask>
<g mask="url(#mask0_8910_2)">
<path fill-rule="evenodd" clip-rule="evenodd" d="M13.1313 16.8L15.7657 19.4344C16.0781 19.7468 16.0781 20.2533 15.7657 20.5657C15.4532 20.8782 14.9467 20.8782 14.6343 20.5657L10.6343 16.5657C10.3219 16.2533 10.3219 15.7468 10.6343 15.4344L14.6343 11.4344C14.9467 11.1219 15.4532 11.1219 15.7657 11.4344C16.0781 11.7468 16.0781 12.2533 15.7657 12.5657L13.1313 15.2L20.8 15.2C21.2418 15.2 21.6 15.5582 21.6 16C21.6 16.4419 21.2418 16.8 20.8 16.8L13.1313 16.8Z" fill="#0B24FB"/>
<mask id="mask1_8910_2" style="mask-type:alpha" maskUnits="userSpaceOnUse" x="10" y="11" width="12" height="10">
<path fill-rule="evenodd" clip-rule="evenodd" d="M13.1313 16.8L15.7657 19.4344C16.0781 19.7468 16.0781 20.2533 15.7657 20.5657C15.4532 20.8782 14.9467 20.8782 14.6343 20.5657L10.6343 16.5657C10.3219 16.2533 10.3219 15.7468 10.6343 15.4344L14.6343 11.4344C14.9467 11.1219 15.4532 11.1219 15.7657 11.4344C16.0781 11.7468 16.0781 12.2533 15.7657 12.5657L13.1313 15.2L20.8 15.2C21.2418 15.2 21.6 15.5582 21.6 16C21.6 16.4419 21.2418 16.8 20.8 16.8L13.1313 16.8Z" fill="white"/>
</mask>
<g mask="url(#mask1_8910_2)">
</g>
</g>
</g>
<defs>
<clipPath id="clip0_8910_2">
<rect width="32" height="32" fill="white" transform="translate(32 32) rotate(180)"/>
</clipPath>
</defs>
</svg>
